<?xml version="1.0" encoding="utf-8"?>
<!-- Generator: Adobe Illustrator 14.0.0, SVG Export Plug-In . SVG Version: 6.00 Build 43363)  -->
<!DOCTYPE svg PUBLIC "-//W3C//DTD SVG 1.1//EN" "http://www.w3.org/Graphics/SVG/1.1/DTD/svg11.dtd">
<svg version="1.1" xmlns="http://www.w3.org/2000/svg" xmlns:xlink="http://www.w3.org/1999/xlink" x="0px" y="0px"
	 width="841.89px" height="595.279px" viewBox="0 0 841.89 595.279" enable-background="new 0 0 841.89 595.279"
	 xml:space="preserve">
<g id="Layer_1">
	<g>
		<g>
			<path fill="#002C77" d="M278.871,299.508h3.985l10.629,16c1.618,2.426,2.6,3.929,3.523,5.487h0.116
				c0.924-1.559,2.022-3.292,3.524-5.719l9.993-15.769h3.985v38.066h-4.274V313.14c0-1.964,0-4.448,0.116-6.47h-0.116
				c-0.809,1.56-1.964,3.466-2.715,4.621l-9.416,15.019h-2.253l-10.224-15.308c-0.809-1.154-1.906-2.772-2.6-4.217h-0.115
				c0.115,1.791,0.115,4.449,0.115,6.297v24.492h-4.274V299.508z"/>
			<path fill="#002C77" d="M320.637,301.24c0-1.617,1.155-2.889,2.831-2.889c1.733,0,2.888,1.214,2.888,2.889
				c0,1.617-1.213,2.831-2.888,2.831S320.637,302.857,320.637,301.24z M321.388,310.252h4.217v27.322h-4.217V310.252z"/>
			<path fill="#002C77" d="M331.901,332.548c1.56,0.982,3.754,2.022,6.816,2.022c3.177,0,5.834-1.271,5.834-4.391
				c0-5.949-12.767-4.043-12.767-13.112c0-4.159,3.177-7.51,9.243-7.51c2.599,0,4.968,0.578,6.758,1.272v3.754
				c-1.848-0.809-3.928-1.502-6.585-1.502c-2.6,0-5.257,0.866-5.257,3.812c0,6.065,12.882,3.986,12.882,13.229
				c0,5.43-4.506,8.029-10.109,8.029c-3.582,0-6.47-1.213-8.203-2.312L331.901,332.548z"/>
			<path fill="#002C77" d="M352.929,332.548c1.56,0.982,3.754,2.022,6.816,2.022c3.177,0,5.834-1.271,5.834-4.391
				c0-5.949-12.766-4.043-12.766-13.112c0-4.159,3.177-7.51,9.243-7.51c2.599,0,4.968,0.578,6.758,1.272v3.754
				c-1.849-0.809-3.928-1.502-6.585-1.502c-2.599,0-5.256,0.866-5.256,3.812c0,6.065,12.881,3.986,12.881,13.229
				c0,5.43-4.506,8.029-10.108,8.029c-3.582,0-6.47-1.213-8.203-2.312L352.929,332.548z"/>
			<path fill="#002C77" d="M373.61,301.24c0-1.617,1.155-2.889,2.831-2.889c1.733,0,2.888,1.214,2.888,2.889
				c0,1.617-1.213,2.831-2.888,2.831C374.765,304.071,373.61,302.857,373.61,301.24z M374.361,310.252h4.217v27.322h-4.217V310.252z
				"/>
			<path fill="#002C77" d="M382.91,323.884c0-8.028,4.91-14.326,12.65-14.326c7.567,0,12.593,6.298,12.593,14.326
				c0,7.972-4.968,14.269-12.651,14.269C387.877,338.152,382.91,331.855,382.91,323.884z M403.705,323.884
				c0-6.296-3.177-10.687-8.145-10.687c-5.083,0-8.26,4.391-8.26,10.687c0,6.239,3.177,10.629,8.202,10.629
				C400.528,334.513,403.705,330.123,403.705,323.884z"/>
			<path fill="#002C77" d="M412.313,310.252h3.582l0.52,3.523c3.003-2.541,6.065-4.218,9.589-4.218c4.274,0,8.087,2.716,8.087,9.589
				v18.428h-4.217v-16.983c0-4.101-1.039-7.22-4.91-7.22c-3.062,0-5.834,1.848-8.375,4.101v20.103h-4.275V310.252z"/>
		</g>
		<g>
			<path fill="#009B76" d="M452.462,299.392h2.889l14.557,38.183h-4.563l-3.813-10.225h-15.249l-3.755,10.225h-4.505
				L452.462,299.392z M460.202,323.769l-3.985-10.976c-1.155-3.35-1.791-5.141-2.253-6.586h-0.115
				c-0.404,1.445-1.098,3.236-2.311,6.586l-3.928,10.976H460.202z"/>
			<path fill="#009B76" d="M473.028,332.548c1.56,0.982,3.755,2.022,6.816,2.022c3.177,0,5.834-1.271,5.834-4.391
				c0-5.949-12.766-4.043-12.766-13.112c0-4.159,3.177-7.51,9.242-7.51c2.6,0,4.968,0.578,6.759,1.272v3.754
				c-1.849-0.809-3.928-1.502-6.585-1.502c-2.6,0-5.257,0.866-5.257,3.812c0,6.065,12.882,3.986,12.882,13.229
				c0,5.43-4.506,8.029-10.109,8.029c-3.581,0-6.469-1.213-8.202-2.312L473.028,332.548z"/>
			<path fill="#009B76" d="M494.171,332.548c1.56,0.982,3.755,2.022,6.816,2.022c3.177,0,5.834-1.271,5.834-4.391
				c0-5.949-12.766-4.043-12.766-13.112c0-4.159,3.177-7.51,9.242-7.51c2.6,0,4.968,0.578,6.759,1.272v3.754
				c-1.849-0.809-3.929-1.502-6.585-1.502c-2.6,0-5.258,0.866-5.258,3.812c0,6.065,12.883,3.986,12.883,13.229
				c0,5.43-4.506,8.029-10.109,8.029c-3.581,0-6.47-1.213-8.202-2.312L494.171,332.548z"/>
			<path fill="#009B76" d="M514.447,301.24c0-1.617,1.155-2.889,2.831-2.889c1.732,0,2.888,1.214,2.888,2.889
				c0,1.617-1.213,2.831-2.888,2.831C515.603,304.071,514.447,302.857,514.447,301.24z M515.198,310.252h4.217v27.322h-4.217
				V310.252z"/>
			<path fill="#009B76" d="M525.654,332.548c1.56,0.982,3.755,2.022,6.815,2.022c3.178,0,5.835-1.271,5.835-4.391
				c0-5.949-12.767-4.043-12.767-13.112c0-4.159,3.178-7.51,9.243-7.51c2.599,0,4.968,0.578,6.759,1.272v3.754
				c-1.85-0.809-3.928-1.502-6.586-1.502c-2.6,0-5.256,0.866-5.256,3.812c0,6.065,12.881,3.986,12.881,13.229
				c0,5.43-4.506,8.029-10.109,8.029c-3.58,0-6.469-1.213-8.201-2.312L525.654,332.548z"/>
			<path fill="#009B76" d="M549.339,331.798v-18.08h-4.621v-3.466h4.621v-6.181l4.217-1.388v7.568h8.145l-1.271,3.466h-6.873v17.386
				c0,2.369,0.982,3.409,2.83,3.409c1.791,0,3.351-0.751,4.447-1.502l1.503,3.003c-1.675,1.213-4.159,2.139-6.874,2.139
				C551.534,338.152,549.339,335.84,549.339,331.798z"/>
		</g>
		<g>
			<path fill="#002C77" d="M294.029,360.846c0.494,0.293,1.335,0.622,2.14,0.622c1.152,0,1.701-0.567,1.701-1.316
				c0-0.769-0.457-1.189-1.628-1.628c-1.609-0.586-2.359-1.444-2.359-2.506c0-1.426,1.171-2.597,3.055-2.597
				c0.896,0,1.682,0.238,2.158,0.548l-0.384,1.154c-0.348-0.202-0.987-0.514-1.811-0.514c-0.951,0-1.463,0.549-1.463,1.207
				c0,0.75,0.512,1.079,1.665,1.518c1.518,0.568,2.322,1.336,2.322,2.67c0,1.573-1.225,2.67-3.292,2.67
				c-0.969,0-1.865-0.256-2.487-0.621L294.029,360.846z"/>
			<path fill="#002C77" d="M302.405,358.322c0.037,2.176,1.408,3.072,3.018,3.072c1.152,0,1.865-0.201,2.451-0.439l0.292,1.134
				c-0.567,0.257-1.555,0.567-2.963,0.567c-2.707,0-4.353-1.811-4.353-4.462c0-2.688,1.591-4.792,4.17-4.792
				c2.89,0,3.64,2.543,3.64,4.171c0,0.329-0.019,0.584-0.055,0.768L302.405,358.322z M307.105,357.17
				c0.019-1.006-0.42-2.615-2.212-2.615c-1.646,0-2.341,1.5-2.469,2.615H307.105z"/>
			<path fill="#002C77" d="M310.671,356.384c0-1.042-0.018-1.938-0.074-2.762h1.409l0.073,1.737h0.055
				c0.402-1.188,1.39-1.938,2.469-1.938c0.164,0,0.292,0.019,0.439,0.055v1.5c-0.183-0.018-0.348-0.037-0.567-0.037
				c-1.134,0-1.938,0.86-2.158,2.049c-0.037,0.237-0.055,0.493-0.055,0.769v4.717h-1.609L310.671,356.384z"/>
			<path fill="#002C77" d="M317.71,353.622l1.737,4.956c0.292,0.822,0.53,1.554,0.713,2.286h0.055
				c0.201-0.732,0.457-1.464,0.75-2.286l1.719-4.956h1.683l-3.475,8.851h-1.536l-3.365-8.851H317.71z"/>
			<path fill="#002C77" d="M326.653,351.994c-0.604,0-1.006-0.476-1.006-1.042s0.421-1.024,1.042-1.024
				c0.622,0,1.024,0.458,1.024,1.024s-0.402,1.042-1.042,1.042H326.653z M325.885,362.473v-8.851h1.609v8.851H325.885z"/>
			<path fill="#002C77" d="M330.164,356.018c0-0.932-0.018-1.664-0.073-2.396h1.426l0.091,1.445h0.037
				c0.439-0.824,1.463-1.646,2.926-1.646c1.225,0,3.127,0.731,3.127,3.769v5.283h-1.609v-5.102c0-1.426-0.531-2.633-2.048-2.633
				c-1.042,0-1.865,0.749-2.158,1.646c-0.073,0.2-0.11,0.494-0.11,0.751v5.338h-1.609V356.018z"/>
			<path fill="#002C77" d="M347.886,361.176c0,2.047-0.421,3.273-1.262,4.059c-0.878,0.787-2.122,1.062-3.237,1.062
				c-1.061,0-2.231-0.257-2.944-0.731l0.402-1.244c0.585,0.384,1.5,0.713,2.597,0.713c1.646,0,2.854-0.858,2.854-3.109v-0.969
				h-0.037c-0.476,0.824-1.444,1.482-2.816,1.482c-2.194,0-3.767-1.867-3.767-4.335c0-2.999,1.957-4.682,4.005-4.682
				c1.536,0,2.359,0.787,2.762,1.518h0.037l0.055-1.316h1.427c-0.055,0.621-0.073,1.336-0.073,2.413V361.176z M346.276,357.098
				c0-0.257-0.019-0.494-0.092-0.714c-0.292-0.951-1.061-1.72-2.249-1.72c-1.537,0-2.634,1.299-2.634,3.365
				c0,1.719,0.896,3.182,2.615,3.182c1.006,0,1.902-0.621,2.231-1.663c0.091-0.257,0.128-0.567,0.128-0.86V357.098z"/>
			<path fill="#002C77" d="M355.054,353.622l1.188,4.48c0.238,0.987,0.476,1.92,0.64,2.835h0.055
				c0.201-0.896,0.494-1.848,0.786-2.816l1.445-4.499h1.354l1.372,4.425c0.329,1.043,0.585,1.994,0.786,2.891h0.055
				c0.146-0.896,0.384-1.828,0.677-2.871l1.262-4.444h1.591l-2.853,8.851h-1.463l-1.354-4.224c-0.311-1.005-0.566-1.884-0.786-2.927
				h-0.037c-0.219,1.062-0.494,1.994-0.805,2.945l-1.426,4.205h-1.463l-2.67-8.851H355.054z"/>
			<path fill="#002C77" d="M371.316,362.674c-2.378,0-4.243-1.755-4.243-4.553c0-2.963,1.957-4.7,4.39-4.7
				c2.542,0,4.261,1.847,4.261,4.536c0,3.292-2.286,4.717-4.389,4.717H371.316z M371.371,361.468c1.536,0,2.688-1.445,2.688-3.456
				c0-1.5-0.75-3.383-2.651-3.383c-1.884,0-2.707,1.755-2.707,3.438c0,1.938,1.097,3.401,2.652,3.401H371.371z"/>
			<path fill="#002C77" d="M377.772,356.384c0-1.042-0.018-1.938-0.073-2.762h1.409l0.073,1.737h0.055
				c0.402-1.188,1.39-1.938,2.469-1.938c0.165,0,0.293,0.019,0.439,0.055v1.5c-0.183-0.018-0.348-0.037-0.567-0.037
				c-1.134,0-1.939,0.86-2.158,2.049c-0.037,0.237-0.055,0.493-0.055,0.769v4.717h-1.609L377.772,356.384z"/>
			<path fill="#002C77" d="M383.805,349.489h1.609v12.983h-1.609V349.489z"/>
			<path fill="#002C77" d="M395.729,349.489v10.698c0,0.786,0.018,1.682,0.073,2.285h-1.444l-0.073-1.535h-0.037
				c-0.494,0.986-1.554,1.736-2.999,1.736c-2.14,0-3.804-1.81-3.804-4.498c-0.018-2.963,1.829-4.755,3.969-4.755
				c1.371,0,2.286,0.64,2.67,1.335h0.037v-5.267H395.729z M394.12,357.225c0-0.219-0.019-0.476-0.073-0.695
				c-0.238-1.005-1.116-1.846-2.323-1.846c-1.664,0-2.651,1.462-2.651,3.4c0,1.811,0.896,3.292,2.615,3.292
				c1.078,0,2.066-0.731,2.359-1.92c0.055-0.22,0.073-0.438,0.073-0.695V357.225z"/>
			<path fill="#002C77" d="M402.276,356.018c0-0.932-0.037-1.664-0.073-2.396h1.408l0.073,1.427h0.055
				c0.494-0.841,1.317-1.628,2.798-1.628c1.188,0,2.103,0.731,2.487,1.774h0.037c0.274-0.512,0.64-0.878,1.006-1.152
				c0.53-0.402,1.097-0.622,1.938-0.622c1.188,0,2.926,0.768,2.926,3.841v5.211h-1.573v-5.01c0-1.719-0.64-2.725-1.92-2.725
				c-0.933,0-1.627,0.676-1.92,1.444c-0.073,0.237-0.128,0.53-0.128,0.805v5.485h-1.573v-5.303c0-1.426-0.622-2.432-1.847-2.432
				c-0.988,0-1.738,0.804-1.994,1.609c-0.092,0.236-0.128,0.511-0.128,0.787v5.338h-1.573V356.018z"/>
			<path fill="#002C77" d="M418.296,351.994c-0.604,0-1.006-0.476-1.006-1.042s0.42-1.024,1.042-1.024
				c0.622,0,1.024,0.458,1.024,1.024s-0.402,1.042-1.042,1.042H418.296z M417.528,362.473v-8.851h1.609v8.851H417.528z"/>
			<path fill="#002C77" d="M421.588,360.846c0.493,0.293,1.335,0.622,2.14,0.622c1.152,0,1.701-0.567,1.701-1.316
				c0-0.769-0.457-1.189-1.628-1.628c-1.609-0.586-2.359-1.444-2.359-2.506c0-1.426,1.17-2.597,3.054-2.597
				c0.896,0,1.683,0.238,2.157,0.548l-0.384,1.154c-0.348-0.202-0.987-0.514-1.811-0.514c-0.95,0-1.463,0.549-1.463,1.207
				c0,0.75,0.513,1.079,1.664,1.518c1.519,0.568,2.323,1.336,2.323,2.67c0,1.573-1.227,2.67-3.293,2.67
				c-0.969,0-1.865-0.256-2.486-0.621L421.588,360.846z"/>
			<path fill="#002C77" d="M428.83,360.846c0.493,0.293,1.335,0.622,2.14,0.622c1.152,0,1.701-0.567,1.701-1.316
				c0-0.769-0.458-1.189-1.629-1.628c-1.608-0.586-2.357-1.444-2.357-2.506c0-1.426,1.17-2.597,3.053-2.597
				c0.896,0,1.684,0.238,2.158,0.548l-0.384,1.154c-0.348-0.202-0.987-0.514-1.811-0.514c-0.95,0-1.463,0.549-1.463,1.207
				c0,0.75,0.513,1.079,1.664,1.518c1.519,0.568,2.322,1.336,2.322,2.67c0,1.573-1.226,2.67-3.292,2.67
				c-0.969,0-1.865-0.256-2.486-0.621L428.83,360.846z"/>
			<path fill="#002C77" d="M437.06,351.994c-0.604,0-1.006-0.476-1.006-1.042s0.421-1.024,1.043-1.024
				c0.621,0,1.023,0.458,1.023,1.024s-0.402,1.042-1.042,1.042H437.06z M436.292,362.473v-8.851h1.609v8.851H436.292z"/>
			<path fill="#002C77" d="M444.173,362.674c-2.377,0-4.242-1.755-4.242-4.553c0-2.963,1.957-4.7,4.389-4.7
				c2.543,0,4.262,1.847,4.262,4.536c0,3.292-2.286,4.717-4.389,4.717H444.173z M444.228,361.468c1.537,0,2.689-1.445,2.689-3.456
				c0-1.5-0.75-3.383-2.652-3.383c-1.883,0-2.707,1.755-2.707,3.438c0,1.938,1.098,3.401,2.652,3.401H444.228z"/>
			<path fill="#002C77" d="M450.61,356.018c0-0.932-0.018-1.664-0.072-2.396h1.426l0.092,1.445h0.036
				c0.439-0.824,1.464-1.646,2.927-1.646c1.225,0,3.127,0.731,3.127,3.769v5.283h-1.609v-5.102c0-1.426-0.53-2.633-2.049-2.633
				c-1.042,0-1.865,0.749-2.157,1.646c-0.073,0.2-0.11,0.494-0.11,0.751v5.338h-1.609V356.018z"/>
			<path fill="#002C77" d="M464.784,362.473v-7.625h-1.226v-1.226h1.226v-0.421c0-1.244,0.293-2.377,1.043-3.09
				c0.604-0.586,1.407-0.824,2.139-0.824c0.586,0,1.061,0.129,1.372,0.257l-0.202,1.243c-0.255-0.109-0.566-0.201-1.041-0.201
				c-1.354,0-1.72,1.207-1.72,2.561v0.476h2.14v1.226h-2.121v7.625H464.784z"/>
			<path fill="#002C77" d="M469.996,356.384c0-1.042-0.019-1.938-0.073-2.762h1.408l0.072,1.737h0.056
				c0.402-1.188,1.39-1.938,2.469-1.938c0.165,0,0.293,0.019,0.438,0.055v1.5c-0.182-0.018-0.347-0.037-0.566-0.037
				c-1.134,0-1.938,0.86-2.158,2.049c-0.036,0.237-0.055,0.493-0.055,0.769v4.717h-1.609L469.996,356.384z"/>
			<path fill="#002C77" d="M479.454,362.674c-2.378,0-4.243-1.755-4.243-4.553c0-2.963,1.956-4.7,4.39-4.7
				c2.541,0,4.26,1.847,4.26,4.536c0,3.292-2.285,4.717-4.389,4.717H479.454z M479.509,361.468c1.536,0,2.688-1.445,2.688-3.456
				c0-1.5-0.749-3.383-2.65-3.383c-1.885,0-2.707,1.755-2.707,3.438c0,1.938,1.098,3.401,2.651,3.401H479.509z"/>
			<path fill="#002C77" d="M485.892,356.018c0-0.932-0.037-1.664-0.074-2.396h1.408l0.074,1.427h0.055
				c0.494-0.841,1.316-1.628,2.798-1.628c1.188,0,2.103,0.731,2.487,1.774h0.036c0.274-0.512,0.641-0.878,1.006-1.152
				c0.53-0.402,1.098-0.622,1.938-0.622c1.189,0,2.926,0.768,2.926,3.841v5.211h-1.572v-5.01c0-1.719-0.64-2.725-1.92-2.725
				c-0.934,0-1.628,0.676-1.92,1.444c-0.074,0.237-0.129,0.53-0.129,0.805v5.485h-1.572v-5.303c0-1.426-0.622-2.432-1.848-2.432
				c-0.987,0-1.736,0.804-1.992,1.609c-0.092,0.236-0.129,0.511-0.129,0.787v5.338h-1.572V356.018z"/>
			<path fill="#002C77" d="M505.021,349.489h1.609v5.523h0.036c0.256-0.458,0.659-0.879,1.152-1.134
				c0.476-0.294,1.042-0.458,1.646-0.458c1.189,0,3.091,0.731,3.091,3.786v5.266h-1.609v-5.084c0-1.443-0.53-2.633-2.048-2.633
				c-1.043,0-1.848,0.731-2.158,1.609c-0.092,0.219-0.109,0.457-0.109,0.77v5.338h-1.609V349.489z"/>
			<path fill="#002C77" d="M518.772,362.674c-2.377,0-4.242-1.755-4.242-4.553c0-2.963,1.956-4.7,4.389-4.7
				c2.542,0,4.261,1.847,4.261,4.536c0,3.292-2.286,4.717-4.389,4.717H518.772z M518.827,361.468c1.537,0,2.688-1.445,2.688-3.456
				c0-1.5-0.749-3.383-2.651-3.383c-1.883,0-2.707,1.755-2.707,3.438c0,1.938,1.098,3.401,2.652,3.401H518.827z"/>
			<path fill="#002C77" d="M525.21,356.018c0-0.932-0.036-1.664-0.073-2.396h1.408l0.073,1.427h0.055
				c0.494-0.841,1.316-1.628,2.799-1.628c1.188,0,2.104,0.731,2.486,1.774h0.037c0.273-0.512,0.641-0.878,1.006-1.152
				c0.53-0.402,1.098-0.622,1.938-0.622c1.188,0,2.927,0.768,2.927,3.841v5.211h-1.573v-5.01c0-1.719-0.64-2.725-1.92-2.725
				c-0.934,0-1.628,0.676-1.921,1.444c-0.073,0.237-0.128,0.53-0.128,0.805v5.485h-1.572v-5.303c0-1.426-0.622-2.432-1.848-2.432
				c-0.987,0-1.737,0.804-1.993,1.609c-0.092,0.236-0.128,0.511-0.128,0.787v5.338h-1.573V356.018z"/>
			<path fill="#002C77" d="M541.377,358.322c0.036,2.176,1.407,3.072,3.017,3.072c1.152,0,1.866-0.201,2.451-0.439l0.293,1.134
				c-0.567,0.257-1.555,0.567-2.963,0.567c-2.707,0-4.353-1.811-4.353-4.462c0-2.688,1.591-4.792,4.17-4.792
				c2.89,0,3.639,2.543,3.639,4.171c0,0.329-0.018,0.584-0.055,0.768L541.377,358.322z M546.077,357.17
				c0.018-1.006-0.421-2.615-2.213-2.615c-1.646,0-2.342,1.5-2.47,2.615H546.077z"/>
		</g>
		<path fill="none" d="M405.952,289.336"/>
		<line fill="#CA521F" x1="405.952" y1="289.336" x2="405.951" y2="289.338"/>
		<g>
			<g>
				<path fill="#009B76" d="M383.857,288.145c-0.761,0.001-1.471-0.387-1.884-1.027c-0.412-0.642-0.47-1.448-0.153-2.141
					l24.962-54.697c0.364-0.797,1.16-1.311,2.037-1.311l0,0c0.877,0,1.673,0.514,2.037,1.311l9.568,20.967
					c0.269,0.59,0.269,1.268,0,1.859l-15.387,33.727c-0.364,0.799-1.16,1.311-2.037,1.311L383.857,288.145L383.857,288.145z"/>
			</g>
			<g>
				<path fill="#002C77" d="M438.256,288.142c-0.878,0-1.674-0.512-2.037-1.311l-15.39-33.726c-0.269-0.592-0.269-1.269,0-1.859
					l9.573-20.986c0.365-0.797,1.161-1.309,2.037-1.309c0.878-0.002,1.674,0.51,2.037,1.309l24.97,54.713
					c0.315,0.693,0.259,1.499-0.153,2.14c-0.412,0.642-1.121,1.028-1.885,1.028L438.256,288.142L438.256,288.142z"/>
			</g>
		</g>
	</g>
</g>
<g id="Layer_2">
</g>
<g id="Layer_3">
</g>
</svg>
